<?xml version="1.0" encoding="UTF-8" standalone="no"?>
<!-- Creator: CorelDRAW 2017 -->

<svg
   xmlns:dc="http://purl.org/dc/elements/1.1/"
   xmlns:cc="http://creativecommons.org/ns#"
   xmlns:rdf="http://www.w3.org/1999/02/22-rdf-syntax-ns#"
   xmlns:svg="http://www.w3.org/2000/svg"
   xmlns="http://www.w3.org/2000/svg"
   xmlns:sodipodi="http://sodipodi.sourceforge.net/DTD/sodipodi-0.dtd"
   xmlns:inkscape="http://www.inkscape.org/namespaces/inkscape"
   xml:space="preserve"
   width="4000px"
   height="794px"
   version="1.0"
   style="shape-rendering:geometricPrecision; text-rendering:geometricPrecision; image-rendering:optimizeQuality; fill-rule:evenodd; clip-rule:evenodd"
   viewBox="0 0 3999.999 793.608"
   id="svg19"
   sodipodi:docname="header_background_waves.svg"
   inkscape:version="0.92.3 (2405546, 2018-03-11)"><metadata
   id="metadata23"><rdf:RDF><cc:Work
       rdf:about=""><dc:format>image/svg+xml</dc:format><dc:type
         rdf:resource="http://purl.org/dc/dcmitype/StillImage" /></cc:Work></rdf:RDF></metadata><sodipodi:namedview
   pagecolor="#ffffff"
   bordercolor="#666666"
   borderopacity="1"
   objecttolerance="10"
   gridtolerance="10"
   guidetolerance="10"
   inkscape:pageopacity="0"
   inkscape:pageshadow="2"
   inkscape:window-width="3586"
   inkscape:window-height="2099"
   id="namedview21"
   showgrid="false"
   inkscape:lockguides="true"
   inkscape:zoom="1.7875659"
   inkscape:cx="1899.7469"
   inkscape:cy="155.60117"
   inkscape:window-x="3840"
   inkscape:window-y="0"
   inkscape:window-maximized="1"
   inkscape:current-layer="_2775180077392"
   inkscape:measure-start="4.26558,384.252"
   inkscape:measure-end="3.84601,327.191" />
 <defs
   id="defs4">
  <style
   type="text/css"
   id="style2">
   <![CDATA[
    .fil0 {fill:#264653}
    .fil3 {fill:#29525E}
    .fil1 {fill:#2E616B}
    .fil2 {fill:#318483}
   ]]>
  </style>
 </defs>
 <g
   id="Layer_x0020_1">
  <metadata
   id="CorelCorpID_0Corel-Layer" />
  <g
   id="_2775180077392">
   <rect
   class="fil0"
   width="3999.999"
   height="623.638"
   id="rect7"
   x="0"
   y="0"
   style="fill:#264653" />
   <path
   class="fil0"
   d="M 3999.999,366.004 C 3385.746,438.54 3056.701,426.218 2960.021,374.573 2787.164,291.658 2695.173,136.299 2453.73,133.877 2079.195,130.12 1937.503,479.634 1627.256,497.797 1508.03,512.331 1298.28,452.83 1040.021,488.32 1017.716,491.385 503.02503,470.17299 0,466.691 V 0.001 h 3999.999 v 366.004 z"
   id="path9"
   inkscape:connector-curvature="0"
   style="fill:#264653"
   sodipodi:nodetypes="ccsccccccc" />
   <path
   class="fil1"
   d="M 4000.1687,443.07501 3999.999,610.292 C 3635.983,620.017 3312.607,554.124 2960.021,451.121 2593.234,298.964 2258.884,620.314 1666.571,617.058 1109.851,613.998 557.012,606.954 0,597.963 V 466.691 c 501.44375,3.48199 1017.551,8.427 1040.021,9.84 267.535,1.355 440.627,0.894 587.235,1.465 298.539,-2.14 451.939,-359.665 826.474,-355.909 241.443,2.422 325.423,177.134 506.291,240.697 123.052,43.244 483.5892,88.59488 1040.1477,80.29101 z"
   id="path11"
   inkscape:connector-curvature="0"
   style="fill:#2e616b"
   sodipodi:nodetypes="cccsccccccc" />
   <path
   class="fil2"
   d="m 2964.2319,419.44335 c 350.028,111.383 674.4166,167.41453 1038.993,167.76009 l 0.09,206.83553 c -475.5349,3.48981 -918.8291,-37.55562 -1039.0831,-85.59862 -386.123,-154.262 -707.3865,47.57092 -1292.9555,85.41579 -58.7617,-0.051 -117.4005,-0.078 -175.9473,-0.0865 -498.70229,-0.0728 -990.7324,1.19627 -1495.20320769,0.4524 L -0.13282683,579.4446 981.86156,581.644 c 231.39104,-0.25 460.14634,-0.58465 688.88734,0.67235 592.314,3.254 818.328,-314.073 1293.483,-162.873 z"
   id="path13"
   inkscape:connector-curvature="0"
   style="fill:#318483"
   sodipodi:nodetypes="sccccsccccs" />
  </g>
  <path
   class="fil3"
   d="m 0,466.691 v -57.06974 c 505.02385,1.59802 913.783,6.49574 1040.266,1.72174 344.125,-1.068 421.678,-379.277 879,-381.339 151.078,-0.68 268.002,49.954 377.631,114.496 -3.674,1.036 -7.315,2.12 -10.942,3.224 v 0 C 2028.015,226.242 1886.438,472.622 1627.256,487.796 1508.03,502.33 1307.7737,481.59581 1040.021,478.32 1017.716,481.385 503.07402,468.34253 0,466.691 Z"
   id="path16"
   inkscape:connector-curvature="0"
   style="fill:#29525e"
   sodipodi:nodetypes="cccccccccc" />
 </g>
</svg>