<?xml version="1.0" encoding="UTF-8"?>
<!DOCTYPE svg PUBLIC "-//W3C//DTD SVG 1.0//EN" "http://www.w3.org/TR/2001/REC-SVG-20010904/DTD/svg10.dtd">
<!-- Creator: CorelDRAW 2017 -->
<svg xmlns="http://www.w3.org/2000/svg" xml:space="preserve" width="4000px" height="794px" version="1.0" style="shape-rendering:geometricPrecision; text-rendering:geometricPrecision; image-rendering:optimizeQuality; fill-rule:evenodd; clip-rule:evenodd"
viewBox="0 0 3999.999 793.608"
 xmlns:xlink="http://www.w3.org/1999/xlink">
 <defs>
  <style type="text/css">
   <![CDATA[
    .fil0 {fill:#264653}
    .fil3 {fill:#29525E}
    .fil1 {fill:#2E616B}
    .fil2 {fill:#318483}
   ]]>
  </style>
 </defs>
 <g id="Layer_x0020_1">
  <metadata id="CorelCorpID_0Corel-Layer"/>
  <g id="_2775180077392">
   <rect class="fil0" width="3999.999" height="623.638"/>
   <path class="fil0" d="M3999.999 366.004c-614.253,72.536 -943.298,60.214 -1039.978,8.569 -172.857,-82.915 -264.848,-238.274 -506.291,-240.696 -374.535,-3.757 -516.227,345.757 -826.474,363.92 -119.226,14.534 -328.976,-44.967 -587.235,-9.477 -22.305,3.065 -531.458,10.334 -1040.021,-21.629l0 -466.69 3999.999 0 0 366.004 0 -0.001z"/>
   <path class="fil1" d="M3999.999 354.215l0 256.077c-364.016,9.725 -687.392,-56.168 -1039.978,-159.171 -366.787,-152.157 -701.137,169.193 -1293.45,165.937 -556.72,-3.06 -1109.559,-10.104 -1666.571,-19.095l0 -143.061c508.564,31.963 1017.551,20.216 1040.021,21.629 267.535,1.355 440.627,0.894 587.235,1.465 298.539,-2.14 451.939,-359.665 826.474,-355.909 241.443,2.422 325.423,177.134 506.291,240.697 123.052,43.244 445.379,127.842 1039.978,-8.569z"/>
   <path class="fil2" d="M2958.595 418.85c350.028,111.383 675.962,168.895 1039.979,159.171l0 181.3c-510.219,82.368 -919.725,-3.431 -1039.979,-51.474 -386.123,-154.262 -707.881,76.748 -1293.45,78.79 -559.294,-0.485 -1100.632,-13.439 -1665.118,-27.324l-0.027 -193.676 978.697 16.007c231.391,-0.25 457.674,-1.178 686.415,0.079 592.314,3.254 818.328,-314.073 1293.483,-162.873l0 0z"/>
  </g>
  <path class="fil3" d="M0 456.69l0 -111.151c443.315,64.098 913.783,70.578 1040.266,65.804 344.125,-1.068 421.678,-379.277 879,-381.339 151.078,-0.68 268.002,49.954 377.631,114.496 -3.674,1.036 -7.315,2.12 -10.942,3.224l0 0c-257.94,78.518 -399.517,324.898 -658.699,340.072 -119.226,14.534 -328.976,-44.966 -587.235,-9.476 -22.305,3.065 -531.457,10.333 -1040.021,-21.63z"/>
 </g>
</svg>
