<?xml version="1.0" encoding="UTF-8"?>
<!DOCTYPE svg PUBLIC "-//W3C//DTD SVG 1.0//EN" "http://www.w3.org/TR/2001/REC-SVG-20010904/DTD/svg10.dtd">
<!-- Creator: CorelDRAW 2017 -->
<svg xmlns="http://www.w3.org/2000/svg" xml:space="preserve" width="699px" height="492px" version="1.0" style="shape-rendering:geometricPrecision; text-rendering:geometricPrecision; image-rendering:optimizeQuality; fill-rule:evenodd; clip-rule:evenodd"
viewBox="0 0 239.161 168.493"
 xmlns:xlink="http://www.w3.org/1999/xlink">
 <defs>
  <style type="text/css">
   <![CDATA[
    .fil0 {fill:#3DC4B4}
    .fil7 {fill:#EA7050}
    .fil6 {fill:#EBC368}
    .fil1 {fill:white}
    .fil5 {fill:white;fill-rule:nonzero}
    .fil2 {fill:url(#id0)}
    .fil3 {fill:url(#id1)}
    .fil4 {fill:url(#id2)}
   ]]>
  </style>
  <linearGradient id="id0" gradientUnits="userSpaceOnUse" x1="216.95" y1="18.781" x2="352.27" y2="96.581">
   <stop offset="0" style="stop-opacity:1; stop-color:#E76F51"/>
   <stop offset="1" style="stop-opacity:1; stop-color:black"/>
  </linearGradient>
  <linearGradient id="id1" gradientUnits="userSpaceOnUse" x1="130.056" y1="54.471" x2="74.974" y2="138.442">
   <stop offset="0" style="stop-opacity:1; stop-color:#E9C46A"/>
   <stop offset="1" style="stop-opacity:1; stop-color:black"/>
  </linearGradient>
  <linearGradient id="id2" gradientUnits="userSpaceOnUse" x1="175.366" y1="41.747" x2="231.188" y2="174.609">
   <stop offset="0" style="stop-opacity:1; stop-color:#F4A261"/>
   <stop offset="1" style="stop-opacity:1; stop-color:black"/>
  </linearGradient>
 </defs>
 <g id="Layer_x0020_1">
  <metadata id="CorelCorpID_0Corel-Layer"/>
  <g id="_2775023069264">
   <polygon class="fil0" points="20.986,94.072 214.549,94.072 234.898,144.414 0,144.387 "/>
   <g>
    <polygon class="fil1" points="188.883,64.578 213.321,121.299 206.427,121.299 183.053,67.067 "/>
    <path class="fil2" d="M239.161 21.947c-23.13,-23.496 -50.661,-25.002 -72.458,-18.882 13.45,4.024 32.859,21.838 44.362,43.123 11.368,-8.188 19.841,-15.774 28.096,-24.241z"/>
    <path class="fil3" d="M117.527 73.821c-0.975,-32.956 16.983,-53.883 36.48,-65.392 -6.399,12.498 -6.684,39.152 0.735,62.184 -14.547,3.014 -25.939,4.053 -37.215,3.208z"/>
    <path class="fil4" d="M160.269 5.718c15.308,5.52 32.659,21.937 43.856,44.986 -13.26,8.686 -26.584,14.444 -41.173,17.916 -9.441,-24.897 -9.532,-47.387 -2.683,-62.902z"/>
   </g>
   <g>
    <path class="fil5" d="M132.299 137.639l12.38 -10.838 -2.267 -2.585 -12.429 10.882 0.002 0.003c-0.361,0.341 -0.571,0.837 -0.532,1.371 0.069,0.946 0.891,1.655 1.837,1.586 0.387,-0.028 0.735,-0.183 1.006,-0.421l0.003 0.002z"/>
    <path class="fil5" d="M194.226 166.02l-7.36 -13.051 -2.991 1.689 7.292 12.931 0.005 -0.002c0.31,0.579 0.941,0.952 1.639,0.901 0.945,-0.069 1.655,-0.891 1.586,-1.837 -0.017,-0.226 -0.077,-0.439 -0.171,-0.631z"/>
    <path class="fil5" d="M229.439 150.567l-2.027 -3.594 -2.991 1.689 1.99 3.529 0.004 -0.002 0.037 0.075 0.049 0.085c0.323,0.535 0.928,0.873 1.594,0.824 0.945,-0.069 1.655,-0.891 1.586,-1.837 -0.021,-0.281 -0.109,-0.542 -0.246,-0.767l0.004 -0.002z"/>
    <path class="fil6" d="M235.175 146.097c-31.204,-2.99 -62.682,-28.442 -73.467,-49.602 -10.997,0.775 -22.375,1.492 -33.678,2.305 13.796,30.642 41.108,50.663 73.1,58.222 8.388,-2.692 16.777,-5.384 25.165,-8.076 2.96,-0.949 5.92,-1.899 8.88,-2.849z"/>
    <path class="fil7" d="M224.698 149.458c-35.619,-8.929 -62.036,-33.967 -71.786,-52.363 -10.997,0.776 6.325,-0.473 -4.978,0.341 13.994,25.648 42.337,45.527 70.912,53.901 2.474,-0.794 3.052,-0.98 5.852,-1.879z"/>
    <path class="fil7" d="M212.234 153.459c-34.226,-8.801 -62.76,-36.957 -71.945,-55.51 -10.997,0.776 6.326,-0.473 -4.978,0.341 15.056,27.534 41.887,48.054 71.422,56.934 2.277,-0.731 2.7,-0.867 5.501,-1.765z"/>
    <path class="fil5" d="M234.543 143.542c-13.169,-1.936 -27.965,-7.333 -41.381,-16.721 -11.221,-7.852 -21.471,-18.496 -28.983,-32.237l-0.001 0c-0.327,-0.517 -0.922,-0.842 -1.576,-0.794 -0.946,0.069 -1.656,0.891 -1.586,1.836 0.016,0.222 0.074,0.431 0.165,0.62l-0.002 0.001c7.788,14.237 18.402,25.26 30.017,33.389 13.849,9.69 29.132,15.273 42.752,17.294l0.001 -0.003c0.141,0.026 0.288,0.035 0.438,0.024 0.944,-0.07 1.654,-0.891 1.585,-1.837 -0.059,-0.806 -0.666,-1.441 -1.43,-1.567l0.001 -0.005z"/>
    <path class="fil5" d="M201.059 157.013c-12.834,-3.355 -26.687,-8.64 -39.451,-17.639 -13.111,-9.242 -25.107,-22.425 -33.725,-41.491l-0.008 0.004c-0.31,-0.58 -0.941,-0.954 -1.639,-0.903 -0.946,0.069 -1.656,0.891 -1.586,1.836 0.011,0.158 0.044,0.308 0.094,0.45 8.901,19.704 21.313,33.338 34.885,42.906 13.128,9.254 27.31,14.686 40.438,18.13l0.001 -0.001 0.009 0.003 0.01 0.003 0.123 0.033c0.159,0.034 0.326,0.047 0.496,0.035 0.945,-0.07 1.655,-0.892 1.586,-1.837 -0.054,-0.736 -0.565,-1.33 -1.235,-1.523l0.002 -0.006z"/>
   </g>
  </g>
 </g>
</svg>
