<?xml version="1.0" encoding="UTF-8" standalone="no"?>
<svg
   xmlns:dc="http://purl.org/dc/elements/1.1/"
   xmlns:cc="http://creativecommons.org/ns#"
   xmlns:rdf="http://www.w3.org/1999/02/22-rdf-syntax-ns#"
   xmlns:svg="http://www.w3.org/2000/svg"
   xmlns="http://www.w3.org/2000/svg"
   xmlns:sodipodi="http://sodipodi.sourceforge.net/DTD/sodipodi-0.dtd"
   xmlns:inkscape="http://www.inkscape.org/namespaces/inkscape"
   version="1.1"
   id="svg2"
   xml:space="preserve"
   width="247.33334"
   height="76.666672"
   viewBox="0 0 247.33334 76.66667"
   sodipodi:docname="siesta_logo_white_on_transparent.svg"
   inkscape:version="0.92.3 (2405546, 2018-03-11)"><metadata
     id="metadata8"><rdf:RDF><cc:Work
         rdf:about=""><dc:format>image/svg+xml</dc:format><dc:type
           rdf:resource="http://purl.org/dc/dcmitype/StillImage" /><dc:title></dc:title></cc:Work></rdf:RDF></metadata><defs
     id="defs6" /><sodipodi:namedview
     pagecolor="#ffffff"
     bordercolor="#666666"
     borderopacity="1"
     objecttolerance="10"
     gridtolerance="10"
     guidetolerance="10"
     inkscape:pageopacity="0"
     inkscape:pageshadow="2"
     inkscape:window-width="2594"
     inkscape:window-height="1734"
     id="namedview4"
     showgrid="false"
     inkscape:zoom="2.4246575"
     inkscape:cx="122.22055"
     inkscape:cy="85.01775"
     inkscape:window-x="204"
     inkscape:window-y="0"
     inkscape:window-maximized="0"
     inkscape:current-layer="g10" /><g
     id="g10"
     inkscape:groupmode="layer"
     inkscape:label="ink_ext_XXXXXX"
     transform="matrix(1.3333333,0,0,-1.3333333,0,76.666622)"><g
       id="g12"
       transform="matrix(0.1,0,0,0.1,-18.250001,-44.851697)"><path
         d="m 958.23,722.109 c -19.574,26.602 -53.703,36.641 -85.828,36.641 -48.687,0 -96.871,-24.098 -96.871,-77.801 0,-91.851 130,-52.703 130,-102.394 0,-19.071 -22.59,-27.606 -40.156,-27.606 -25.598,0 -41.66,12.551 -57.219,29.617 L 768,542.922 c 24.598,-27.609 56.719,-37.145 93.863,-37.145 49.192,0 103.899,20.078 103.899,77.297 0,93.86 -129.996,58.723 -129.996,101.891 0,18.066 19.07,25.601 35.132,25.601 20.579,0 35.637,-8.535 47.18,-24.597 z m 85.06,120.024 c 19.55,0 35.4,-15.848 35.4,-35.403 0,-19.55 -15.85,-35.398 -35.4,-35.398 -19.55,0 -35.4,15.848 -35.4,35.398 0,19.555 15.85,35.403 35.4,35.403 z m -29.84,-330.336 h 60.23 v 240.926 h -60.23 z m 357.92,99.387 v 16.562 c 0,83.82 -45.67,131.004 -112.93,131.004 -72.78,0 -131,-50.695 -131,-126.484 0,-75.797 58.22,-126.489 131,-126.489 38.15,0 73.79,13.551 101.89,48.184 l -43.16,32.629 c -15.06,-18.574 -34.64,-32.629 -64.75,-32.629 -33.63,0 -60.74,21.586 -64.75,57.223 z m -183.7,45.171 c 4.52,34.629 26.6,57.219 62.24,57.219 37.64,0 60.73,-22.086 61.23,-57.219 z m 408.56,65.754 c -19.57,26.602 -53.7,36.641 -85.82,36.641 -48.69,0 -96.87,-24.098 -96.87,-77.801 0,-91.851 130,-52.703 130,-102.394 0,-19.071 -22.59,-27.606 -40.16,-27.606 -25.59,0 -41.66,12.551 -57.22,29.617 l -40.15,-37.644 c 24.6,-27.609 56.72,-37.145 93.86,-37.145 49.18,0 103.9,20.078 103.9,77.297 0,93.86 -130,58.723 -130,101.891 0,18.066 19.07,25.601 35.13,25.601 20.58,0 35.64,-8.535 47.19,-24.597 z m 58.52,-131.004 c 0,-56.714 15.05,-85.328 78.8,-85.328 14.05,0 35.13,2.008 47.68,8.032 V 564.5 c -7.53,-5.516 -22.09,-7.527 -32.62,-7.527 -26.61,0 -33.64,15.058 -33.64,39.152 v 105.402 h 66.26 v 51.196 h -66.26 v 76.683 h -60.22 c 0,-114.183 0,-98.711 0,-238.301 z m 324.24,-79.308 h 54.21 v 138.535 c 0,34.133 0,108.418 -102.9,108.418 -38.14,0 -75.79,-11.543 -102.39,-38.652 l 31.62,-31.621 c 16.06,15.062 39.15,25.097 64.25,25.097 32.12,0 55.21,-15.586 55.21,-45.172 v -6.527 h -15.06 c -60.2,0 -151.58,-5.52 -151.58,-83.82 0,-47.684 43.16,-72.278 87.84,-72.278 32.12,0 60.23,12.047 77.29,39.149 h 1.51 z m -3.51,94.363 c 0,-33.578 -19.58,-55.211 -60.73,-55.211 -19.58,0 -42.17,9.539 -42.17,31.621 0,34.637 57.22,37.145 90.35,37.145 h 12.55 V 606.16"
         style="fill:#fefefe;fill-opacity:1;fill-rule:nonzero;stroke:none"
         id="path14"
         inkscape:connector-curvature="0" /><path
         d="M 516.641,714.492 627.293,457.656 h -31.215 l -105.84,245.563 26.403,11.273"
         style="fill:#fefefe;fill-opacity:1;fill-rule:evenodd;stroke:none"
         id="path16"
         inkscape:connector-curvature="0" /><path
         d="m 744.297,907.527 c -104.731,106.393 -229.391,113.213 -328.094,85.5 60.906,-18.218 148.793,-98.882 200.875,-195.265 51.477,37.074 89.84,71.426 127.219,109.765"
         style="fill:#fefefe;fill-opacity:1;fill-rule:evenodd;stroke:none"
         id="path18"
         inkscape:connector-curvature="0" /><path
         d="m 193.535,672.641 c -4.414,149.222 76.899,243.984 165.18,296.101 C 329.738,912.148 328.453,791.457 362.043,687.164 296.176,673.516 244.59,668.813 193.535,672.641"
         style="fill:#fefefe;fill-opacity:1;fill-rule:evenodd;stroke:none"
         id="path20"
         inkscape:connector-curvature="0" /><path
         d="M 387.074,981.012 C 456.387,956.02 534.953,881.684 585.656,777.316 525.609,737.98 465.277,711.91 399.219,696.191 c -42.75,112.735 -43.16,214.567 -12.145,284.821"
         style="fill:#fefefe;fill-opacity:1;fill-rule:evenodd;stroke:none"
         id="path22"
         inkscape:connector-curvature="0" /></g></g></svg>