<?xml version="1.0" encoding="UTF-8"?>
<!DOCTYPE svg PUBLIC "-//W3C//DTD SVG 1.0//EN" "http://www.w3.org/TR/2001/REC-SVG-20010904/DTD/svg10.dtd">
<!-- Creator: CorelDRAW 2017 -->
<svg xmlns="http://www.w3.org/2000/svg" xml:space="preserve" width="1562px" height="492px" version="1.0" style="shape-rendering:geometricPrecision; text-rendering:geometricPrecision; image-rendering:optimizeQuality; fill-rule:evenodd; clip-rule:evenodd"
viewBox="0 0 1194.176 376.517"
 xmlns:xlink="http://www.w3.org/1999/xlink">
 <defs>
  <style type="text/css">
   <![CDATA[
    .fil1 {fill:#3DC4B4}
    .fil7 {fill:#EA7050}
    .fil6 {fill:#EBC368}
    .fil2 {fill:white}
    .fil0 {fill:white;fill-rule:nonzero}
    .fil3 {fill:url(#id0)}
    .fil4 {fill:url(#id1)}
    .fil5 {fill:url(#id2)}
   ]]>
  </style>
  <linearGradient id="id0" gradientUnits="userSpaceOnUse" x1="484.801" y1="41.969" x2="787.19" y2="215.823">
   <stop offset="0" style="stop-opacity:1; stop-color:#E76F51"/>
   <stop offset="1" style="stop-opacity:1; stop-color:black"/>
  </linearGradient>
  <linearGradient id="id1" gradientUnits="userSpaceOnUse" x1="290.626" y1="121.721" x2="167.539" y2="309.366">
   <stop offset="0" style="stop-opacity:1; stop-color:#E9C46A"/>
   <stop offset="1" style="stop-opacity:1; stop-color:black"/>
  </linearGradient>
  <linearGradient id="id2" gradientUnits="userSpaceOnUse" x1="391.877" y1="93.288" x2="516.617" y2="390.184">
   <stop offset="0" style="stop-opacity:1; stop-color:#F4A261"/>
   <stop offset="1" style="stop-opacity:1; stop-color:black"/>
  </linearGradient>
 </defs>
 <g id="Layer_x0020_1">
  <metadata id="CorelCorpID_0Corel-Layer"/>
  <path class="fil0" d="M663.676 140.549c-9.66,-13.128 -26.504,-18.082 -42.357,-18.082 -24.028,0 -47.807,11.89 -47.807,38.394 0,45.329 64.155,26.008 64.155,50.531 0,9.413 -11.146,13.624 -19.817,13.624 -12.632,0 -20.559,-6.193 -28.238,-14.615l-19.816 18.578c12.138,13.624 27.991,18.33 46.321,18.33 24.275,0 51.274,-9.908 51.274,-38.147 0,-46.32 -64.155,-28.981 -64.155,-50.283 0,-8.917 9.413,-12.633 17.339,-12.633 10.156,0 17.587,4.211 23.285,12.138l19.816 -17.835zm41.976 -59.233c9.65,0 17.471,7.822 17.471,17.471 0,9.648 -7.821,17.47 -17.471,17.47 -9.648,0 -17.469,-7.822 -17.469,-17.47 0,-9.649 7.821,-17.471 17.469,-17.471zm-14.729 163.021l29.724 0 0 -118.898 -29.724 0 0 118.898zm176.64 -49.046l0 -8.173c0,-41.367 -22.541,-64.651 -55.733,-64.651 -35.917,0 -64.651,25.018 -64.651,62.421 0,37.403 28.734,62.421 64.651,62.421 18.825,0 36.412,-6.688 50.283,-23.78l-21.302 -16.1c-7.431,9.165 -17.091,16.1 -31.954,16.1 -16.596,0 -29.972,-10.65 -31.953,-28.238l90.659 0zm-90.659 -22.293c2.229,-17.091 13.128,-28.238 30.715,-28.238 18.578,0 29.972,10.899 30.219,28.238l-60.934 0zm201.63 -32.449c-9.661,-13.128 -26.504,-18.082 -42.358,-18.082 -24.027,0 -47.806,11.89 -47.806,38.394 0,45.329 64.154,26.008 64.154,50.531 0,9.413 -11.146,13.624 -19.816,13.624 -12.632,0 -20.559,-6.193 -28.238,-14.615l-19.816 18.578c12.138,13.624 27.991,18.33 46.321,18.33 24.275,0 51.274,-9.908 51.274,-38.147 0,-46.32 -64.155,-28.981 -64.155,-50.283 0,-8.917 9.413,-12.633 17.339,-12.633 10.156,0 17.587,4.211 23.285,12.138l19.816 -17.835zm28.873 64.651c0,27.99 7.431,42.109 38.89,42.109 6.935,0 17.339,-0.991 23.531,-3.964l0 -25.017c-3.715,2.724 -10.898,3.715 -16.101,3.715 -13.128,0 -16.596,-7.431 -16.596,-19.32l0 -52.018 32.697 0 0 -25.266 -32.697 0 0 -37.843 -29.724 0c0,56.351 0,48.715 0,117.604zm160.017 39.137l26.752 0 0 -68.367c0,-16.843 0,-53.503 -50.78,-53.503 -18.825,0 -37.402,5.697 -50.531,19.073l15.605 15.605c7.927,-7.431 19.321,-12.385 31.707,-12.385 15.852,0 27.247,7.691 27.247,22.293l0 3.221 -7.431 0c-29.713,0 -74.807,2.724 -74.807,41.365 0,23.533 21.302,35.67 43.348,35.67 15.854,0 29.725,-5.945 38.147,-19.32l0.743 0 0 16.348zm-1.734 -46.569c0,16.573 -9.661,27.248 -29.972,27.248 -9.661,0 -20.808,-4.706 -20.808,-15.605 0,-17.092 28.239,-18.331 44.587,-18.331l6.193 0 0 6.688z"/>
  <g id="_2774966050528">
   <polygon class="fil1" points="46.895,210.215 479.436,210.215 524.908,322.71 0,322.65 "/>
   <g>
    <polygon class="fil2" points="422.083,144.307 476.691,271.056 461.287,271.056 409.054,149.87 "/>
    <path class="fil3" d="M534.434 49.044c-51.686,-52.506 -113.208,-55.87 -161.916,-42.194 30.057,8.991 73.428,48.798 99.133,96.363 25.402,-18.296 44.337,-35.25 62.783,-54.169z"/>
    <path class="fil4" d="M262.628 164.962c-2.177,-73.643 37.951,-120.408 81.519,-146.127 -14.299,27.928 -14.935,87.49 1.642,138.958 -32.506,6.736 -57.964,9.057 -83.161,7.169z"/>
    <path class="fil5" d="M358.141 12.778c34.206,12.334 72.979,49.02 98.002,100.526 -29.633,19.411 -59.406,32.277 -92.008,40.035 -21.097,-55.634 -21.3,-105.89 -5.994,-140.561z"/>
   </g>
   <g>
    <path class="fil0" d="M295.637 307.572l27.665 -24.219 -5.064 -5.777 -27.776 24.317 0.005 0.006c-0.806,0.763 -1.276,1.87 -1.188,3.064 0.155,2.113 1.991,3.699 4.105,3.545 0.865,-0.064 1.642,-0.41 2.247,-0.942l0.006 0.006z"/>
    <path class="fil0" d="M434.02 370.991l-16.446 -29.164 -6.683 3.774 16.296 28.898 0.01 -0.006c0.693,1.294 2.103,2.128 3.662,2.014 2.112,-0.155 3.698,-1.992 3.544,-4.105 -0.038,-0.506 -0.172,-0.981 -0.383,-1.411z"/>
    <path class="fil0" d="M512.708 336.459l-4.528 -8.03 -6.683 3.775 4.447 7.885 0.008 -0.004 0.083 0.167 0.108 0.191c0.723,1.194 2.075,1.95 3.563,1.841 2.112,-0.155 3.698,-1.992 3.544,-4.105 -0.046,-0.629 -0.243,-1.212 -0.55,-1.715l0.008 -0.005z"/>
    <path class="fil6" d="M525.527 326.47c-69.729,-6.681 -140.07,-63.556 -164.17,-110.841 -24.575,1.734 -50,3.334 -75.259,5.152 30.83,68.474 91.861,113.212 163.351,130.104 18.745,-6.015 37.49,-12.031 56.235,-18.046 6.613,-2.123 13.228,-4.246 19.843,-6.369z"/>
    <path class="fil7" d="M502.116 333.983c-79.596,-19.954 -138.629,-75.904 -160.416,-117.013 -24.574,1.734 14.135,-1.057 -11.125,0.761 31.272,57.316 94.608,101.737 158.463,120.449 5.529,-1.774 6.82,-2.189 13.078,-4.197z"/>
    <path class="fil7" d="M474.261 342.922c-76.48,-19.667 -140.244,-82.583 -160.767,-124.043 -24.575,1.734 14.135,-1.056 -11.125,0.762 33.645,61.528 93.601,107.383 159.602,127.226 5.087,-1.633 6.033,-1.937 12.29,-3.945z"/>
    <path class="fil0" d="M524.115 320.762c-29.427,-4.327 -62.492,-16.386 -92.472,-37.364 -25.074,-17.547 -47.978,-41.332 -64.766,-72.038l-0.001 0c-0.732,-1.156 -2.061,-1.883 -3.522,-1.776 -2.114,0.155 -3.7,1.992 -3.545,4.103 0.036,0.497 0.165,0.963 0.369,1.386l-0.004 0.002c17.403,31.815 41.121,56.447 67.078,74.611 30.946,21.655 65.097,34.131 95.533,38.646l0.001 -0.006c0.316,0.058 0.644,0.078 0.979,0.053 2.112,-0.155 3.698,-1.991 3.543,-4.105 -0.132,-1.801 -1.488,-3.219 -3.195,-3.501l0.002 -0.011z"/>
    <path class="fil0" d="M449.291 350.865c-28.68,-7.497 -59.635,-19.308 -88.158,-39.416 -29.297,-20.654 -56.104,-50.112 -75.362,-92.718l-0.019 0.009c-0.693,-1.295 -2.103,-2.131 -3.663,-2.017 -2.113,0.155 -3.699,1.992 -3.544,4.103 0.025,0.351 0.098,0.688 0.21,1.004 19.891,44.032 47.627,74.499 77.956,95.879 29.335,20.681 61.028,32.819 90.364,40.514l0 -0.001 0.021 0.007 0.022 0.006 0.277 0.072c0.354,0.078 0.727,0.106 1.107,0.078 2.112,-0.154 3.698,-1.991 3.543,-4.104 -0.12,-1.645 -1.262,-2.971 -2.758,-3.403l0.004 -0.013z"/>
   </g>
  </g>
 </g>
</svg>
