<?xml version="1.0" encoding="UTF-8"?>
<!DOCTYPE svg PUBLIC "-//W3C//DTD SVG 1.0//EN" "http://www.w3.org/TR/2001/REC-SVG-20010904/DTD/svg10.dtd">
<!-- Creator: CorelDRAW 2017 -->
<svg xmlns="http://www.w3.org/2000/svg" xml:space="preserve" width="1887px" height="492px" version="1.0" style="shape-rendering:geometricPrecision; text-rendering:geometricPrecision; image-rendering:optimizeQuality; fill-rule:evenodd; clip-rule:evenodd"
viewBox="0 0 1742.855 454.858"
 xmlns:xlink="http://www.w3.org/1999/xlink">
 <defs>
  <style type="text/css">
   <![CDATA[
    .fil1 {fill:#3DC4B4}
    .fil7 {fill:#EA7050}
    .fil6 {fill:#EBC368}
    .fil2 {fill:white}
    .fil8 {fill:#E9C46A;fill-rule:nonzero}
    .fil0 {fill:white;fill-rule:nonzero}
    .fil3 {fill:url(#id0)}
    .fil4 {fill:url(#id1)}
    .fil5 {fill:url(#id2)}
   ]]>
  </style>
  <linearGradient id="id0" gradientUnits="userSpaceOnUse" x1="585.671" y1="50.701" x2="950.977" y2="260.728">
   <stop offset="0" style="stop-opacity:1; stop-color:#E76F51"/>
   <stop offset="1" style="stop-opacity:1; stop-color:black"/>
  </linearGradient>
  <linearGradient id="id1" gradientUnits="userSpaceOnUse" x1="351.095" y1="147.047" x2="202.399" y2="373.735">
   <stop offset="0" style="stop-opacity:1; stop-color:#E9C46A"/>
   <stop offset="1" style="stop-opacity:1; stop-color:black"/>
  </linearGradient>
  <linearGradient id="id2" gradientUnits="userSpaceOnUse" x1="473.413" y1="112.698" x2="624.108" y2="471.369">
   <stop offset="0" style="stop-opacity:1; stop-color:#F4A261"/>
   <stop offset="1" style="stop-opacity:1; stop-color:black"/>
  </linearGradient>
 </defs>
 <g id="Layer_x0020_1">
  <metadata id="CorelCorpID_0Corel-Layer"/>
  <path class="fil0" d="M801.765 169.793c-11.671,-15.86 -32.019,-21.845 -51.171,-21.845 -29.026,0 -57.753,14.364 -57.753,46.383 0,54.76 77.503,31.42 77.503,61.045 0,11.371 -13.465,16.458 -23.94,16.458 -15.261,0 -24.836,-7.481 -34.113,-17.656l-23.939 22.444c14.663,16.458 33.814,22.144 55.959,22.144 29.325,0 61.942,-11.97 61.942,-46.084 0,-55.958 -77.504,-35.011 -77.504,-60.745 0,-10.773 11.372,-15.262 20.947,-15.262 12.27,0 21.247,5.087 28.13,14.663l23.939 -21.545zm50.71 -71.557c11.657,0 21.106,9.448 21.106,21.105 0,11.656 -9.449,21.105 -21.106,21.105 -11.656,0 -21.105,-9.449 -21.105,-21.105 0,-11.657 9.449,-21.105 21.105,-21.105zm-17.794 196.939l35.908 0 0 -143.636 -35.908 0 0 143.636zm213.393 -59.25l0 -9.875c0,-49.973 -27.232,-78.102 -67.33,-78.102 -43.39,0 -78.102,30.224 -78.102,75.409 0,45.185 34.712,75.409 78.102,75.409 22.742,0 43.989,-8.079 60.746,-28.728l-25.735 -19.451c-8.977,11.073 -20.647,19.451 -38.602,19.451 -20.049,0 -36.208,-12.866 -38.602,-34.113l109.523 0zm-109.523 -26.932c2.693,-20.647 15.86,-34.113 37.106,-34.113 22.443,0 36.208,13.166 36.507,34.113l-73.613 0zm243.583 -39.2c-11.67,-15.86 -32.019,-21.845 -51.171,-21.845 -29.026,0 -57.753,14.364 -57.753,46.383 0,54.76 77.503,31.42 77.503,61.045 0,11.371 -13.465,16.458 -23.939,16.458 -15.262,0 -24.837,-7.481 -34.114,-17.656l-23.939 22.444c14.663,16.458 33.815,22.144 55.959,22.144 29.325,0 61.942,-11.97 61.942,-46.084 0,-55.958 -77.503,-35.011 -77.503,-60.745 0,-10.773 11.371,-15.262 20.947,-15.262 12.269,0 21.245,5.087 28.129,14.663l23.939 -21.545zm34.881 78.102c0,33.814 8.977,50.871 46.981,50.871 8.378,0 20.947,-1.197 28.428,-4.789l0 -30.222c-4.489,3.291 -13.166,4.488 -19.451,4.488 -15.86,0 -20.049,-8.977 -20.049,-23.34l0 -62.841 39.5 0 0 -30.523 -39.5 0 0 -45.717 -35.909 0c0,68.076 0,58.851 0,142.073zm193.31 47.28l32.319 0 0 -82.591c0,-20.348 0,-64.636 -61.345,-64.636 -22.742,0 -45.185,6.882 -61.045,23.042l18.852 18.852c9.576,-8.978 23.341,-14.962 38.303,-14.962 19.151,0 32.916,9.291 32.916,26.931l0 3.891 -8.977 0c-35.895,0 -90.371,3.291 -90.371,49.973 0,28.428 25.735,43.091 52.367,43.091 19.152,0 35.91,-7.182 46.084,-23.341l0.897 0 0 19.75zm-2.094 -56.258c0,20.021 -11.671,32.917 -36.209,32.917 -11.67,0 -25.136,-5.685 -25.136,-18.852 0,-20.648 34.114,-22.144 53.864,-22.144l7.481 0 0 8.079z"/>
  <g id="_2775025768672">
   <polygon class="fil1" points="56.652,253.954 579.191,253.954 634.124,389.855 0,389.783 "/>
   <g>
    <polygon class="fil2" points="509.904,174.333 575.874,327.454 557.266,327.454 494.165,181.053 "/>
    <path class="fil3" d="M645.632 59.248c-62.441,-63.43 -136.763,-67.495 -195.605,-50.973 36.31,10.861 88.706,58.952 119.759,116.413 30.687,-22.103 53.562,-42.584 75.846,-65.44z"/>
    <path class="fil4" d="M317.272 199.285c-2.63,-88.966 45.848,-145.46 98.48,-176.532 -17.274,33.74 -18.042,105.695 1.984,167.872 -39.269,8.137 -70.024,10.941 -100.464,8.66z"/>
    <path class="fil5" d="M432.658 15.437c41.324,14.9 88.164,59.219 118.393,121.441 -35.799,23.451 -71.767,38.994 -111.152,48.365 -25.486,-67.209 -25.731,-127.922 -7.241,-169.806z"/>
   </g>
   <g>
    <path class="fil0" d="M357.149 371.567l33.421 -29.258 -6.118 -6.979 -33.555 29.376 0.007 0.008c-0.975,0.922 -1.542,2.259 -1.436,3.702 0.187,2.553 2.406,4.469 4.959,4.282 1.045,-0.077 1.983,-0.495 2.715,-1.138l0.007 0.007z"/>
    <path class="fil0" d="M524.326 448.182l-19.868 -35.232 -8.074 4.559 19.686 34.91 0.012 -0.007c0.838,1.563 2.541,2.571 4.425,2.433 2.551,-0.186 4.467,-2.405 4.28,-4.958 -0.045,-0.612 -0.207,-1.186 -0.461,-1.705z"/>
    <path class="fil0" d="M619.386 406.465l-5.471 -9.7 -8.074 4.559 5.373 9.526 0.009 -0.005 0.101 0.202 0.131 0.231c0.873,1.443 2.506,2.355 4.304,2.223 2.551,-0.186 4.468,-2.405 4.281,-4.958 -0.056,-0.76 -0.293,-1.464 -0.664,-2.072l0.01 -0.006z"/>
    <path class="fil6" d="M634.871 394.398c-84.237,-8.072 -169.214,-76.78 -198.328,-133.904 -29.687,2.094 -60.403,4.028 -90.918,6.224 37.245,82.721 110.975,136.767 197.339,157.175 22.645,-7.267 45.291,-14.535 67.936,-21.802 7.989,-2.564 15.98,-5.128 23.971,-7.693z"/>
    <path class="fil7" d="M606.589 403.474c-96.157,-24.106 -167.473,-91.697 -193.793,-141.36 -29.687,2.095 17.076,-1.276 -13.439,0.92 37.779,69.241 114.292,122.905 191.434,145.51 6.679,-2.143 8.239,-2.645 15.798,-5.07z"/>
    <path class="fil7" d="M572.939 414.273c-92.393,-23.759 -169.424,-99.766 -194.218,-149.852 -29.687,2.094 17.076,-1.277 -13.439,0.92 40.645,74.329 113.076,129.725 192.81,153.698 6.145,-1.973 7.288,-2.34 14.847,-4.766z"/>
    <path class="fil0" d="M633.165 387.502c-35.549,-5.227 -75.494,-19.795 -111.711,-45.138 -30.292,-21.199 -57.962,-49.932 -78.242,-87.028l-0.002 0.002c-0.884,-1.398 -2.489,-2.276 -4.255,-2.146 -2.553,0.187 -4.469,2.406 -4.282,4.957 0.044,0.599 0.2,1.163 0.446,1.673l-0.005 0.002c21.025,38.436 49.676,68.192 81.034,90.136 37.386,26.161 78.643,41.233 115.411,46.687l0.002 -0.007c0.381,0.07 0.777,0.094 1.182,0.064 2.551,-0.187 4.467,-2.406 4.28,-4.959 -0.159,-2.176 -1.797,-3.89 -3.86,-4.23l0.002 -0.013z"/>
    <path class="fil0" d="M542.773 423.868c-34.646,-9.057 -72.043,-23.326 -106.5,-47.617 -35.394,-24.951 -67.778,-60.538 -91.043,-112.009l-0.023 0.011c-0.836,-1.565 -2.54,-2.575 -4.424,-2.437 -2.553,0.187 -4.469,2.406 -4.283,4.957 0.032,0.424 0.119,0.831 0.255,1.212 24.029,53.194 57.536,90 94.175,115.828 35.439,24.984 73.726,39.648 109.166,48.945l0.001 -0.002 0.025 0.008 0.026 0.007 0.334 0.088c0.429,0.094 0.879,0.128 1.339,0.094 2.55,-0.186 4.467,-2.406 4.28,-4.958 -0.146,-1.988 -1.525,-3.589 -3.332,-4.112l0.004 -0.015z"/>
   </g>
  </g>
  <path class="fil8" d="M715.175 408.524c-3.77,0 -7.413,-0.535 -10.927,-1.605 -3.515,-1.071 -6.296,-2.491 -8.345,-4.26l3.143 -7.052c2.001,1.583 4.457,2.874 7.366,3.875 2.909,1.001 5.83,1.501 8.763,1.501 3.631,0 6.342,-0.581 8.135,-1.745 1.792,-1.164 2.688,-2.7 2.688,-4.609 0,-1.396 -0.5,-2.548 -1.501,-3.456 -1.001,-0.908 -2.27,-1.618 -3.806,-2.13 -1.536,-0.512 -3.631,-1.093 -6.284,-1.745 -3.724,-0.885 -6.738,-1.769 -9.042,-2.653 -2.304,-0.885 -4.283,-2.27 -5.935,-4.155 -1.653,-1.885 -2.479,-4.434 -2.479,-7.646 0,-2.7 0.733,-5.155 2.199,-7.367 1.467,-2.21 3.678,-3.968 6.634,-5.271 2.956,-1.304 6.575,-1.955 10.857,-1.955 2.98,0 5.912,0.372 8.798,1.117 2.887,0.745 5.377,1.815 7.472,3.212l-2.863 7.052c-2.141,-1.257 -4.376,-2.211 -6.704,-2.863 -2.327,-0.651 -4.585,-0.977 -6.772,-0.977 -3.585,0 -6.25,0.605 -7.995,1.815 -1.746,1.211 -2.619,2.816 -2.619,4.818 0,1.397 0.501,2.537 1.501,3.421 1.001,0.885 2.27,1.583 3.806,2.095 1.536,0.512 3.631,1.094 6.284,1.746 3.631,0.838 6.61,1.711 8.938,2.618 2.327,0.908 4.317,2.293 5.97,4.155 1.652,1.862 2.479,4.376 2.479,7.541 0,2.7 -0.734,5.144 -2.2,7.332 -1.466,2.187 -3.689,3.933 -6.668,5.236 -2.979,1.304 -6.61,1.955 -10.893,1.955z"/>
  <path id="1" class="fil8" d="M765.519 405.801c-1.024,0.838 -2.269,1.467 -3.736,1.886 -1.466,0.419 -3.014,0.628 -4.643,0.628 -4.097,0 -7.262,-1.071 -9.496,-3.212 -2.235,-2.141 -3.352,-5.26 -3.352,-9.356l0 -17.945 -6.145 0 0 -6.983 6.145 0 0 -8.519 8.728 0 0 8.519 9.985 0 0 6.983 -9.985 0 0 17.735c0,1.816 0.442,3.2 1.327,4.155 0.884,0.954 2.164,1.431 3.84,1.431 1.955,0 3.585,-0.512 4.888,-1.536l2.444 6.214z"/>
  <path id="2" class="fil8" d="M781.02 375.986c2.513,-3.91 6.936,-5.865 13.267,-5.865l0 8.309c-0.745,-0.139 -1.42,-0.209 -2.025,-0.209 -3.398,0 -6.052,0.989 -7.96,2.967 -1.909,1.979 -2.863,4.83 -2.863,8.554l0 18.084 -8.728 0 0 -37.286 8.309 0 0 5.446z"/>
  <path id="3" class="fil8" d="M836.391 389.392c0,0.606 -0.047,1.467 -0.14,2.584l-29.256 0c0.512,2.747 1.85,4.923 4.015,6.529 2.164,1.606 4.852,2.409 8.065,2.409 4.096,0 7.471,-1.35 10.124,-4.05l4.678 5.376c-1.675,2.002 -3.793,3.515 -6.354,4.539 -2.56,1.024 -5.446,1.536 -8.658,1.536 -4.096,0 -7.704,-0.814 -10.823,-2.444 -3.119,-1.629 -5.528,-3.898 -7.227,-6.808 -1.699,-2.909 -2.548,-6.203 -2.548,-9.88 0,-3.631 0.826,-6.901 2.478,-9.81 1.653,-2.91 3.946,-5.179 6.878,-6.808 2.933,-1.629 6.238,-2.444 9.915,-2.444 3.631,0 6.878,0.803 9.741,2.409 2.863,1.606 5.097,3.864 6.703,6.773 1.606,2.909 2.409,6.272 2.409,10.089zm-18.853 -12.289c-2.793,0 -5.155,0.827 -7.087,2.479 -1.932,1.653 -3.107,3.852 -3.526,6.599l21.157 0c-0.373,-2.7 -1.513,-4.888 -3.422,-6.564 -1.908,-1.676 -4.282,-2.514 -7.122,-2.514z"/>
  <path id="4" class="fil8" d="M856.291 408.315c-3.026,0 -5.982,-0.395 -8.868,-1.187 -2.886,-0.791 -5.19,-1.792 -6.913,-3.002l3.352 -6.634c1.676,1.118 3.689,2.014 6.04,2.689 2.351,0.675 4.667,1.012 6.948,1.012 5.213,0 7.82,-1.373 7.82,-4.12 0,-1.303 -0.664,-2.211 -1.99,-2.723 -1.327,-0.512 -3.456,-1.001 -6.389,-1.466 -3.072,-0.466 -5.574,-1.001 -7.506,-1.606 -1.932,-0.605 -3.608,-1.664 -5.028,-3.177 -1.42,-1.513 -2.129,-3.619 -2.129,-6.319 0,-3.538 1.478,-6.366 4.434,-8.484 2.956,-2.118 6.947,-3.177 11.975,-3.177 2.56,0 5.12,0.291 7.68,0.873 2.561,0.582 4.655,1.361 6.285,2.339l-3.352 6.633c-3.166,-1.862 -6.726,-2.793 -10.683,-2.793 -2.561,0 -4.504,0.384 -5.831,1.152 -1.326,0.768 -1.99,1.781 -1.99,3.038 0,1.396 0.71,2.385 2.13,2.967 1.42,0.582 3.619,1.129 6.598,1.641 2.98,0.466 5.423,1.001 7.332,1.606 1.909,0.605 3.55,1.629 4.923,3.072 1.373,1.443 2.059,3.492 2.059,6.145 0,3.491 -1.512,6.284 -4.538,8.379 -3.026,2.095 -7.145,3.142 -12.359,3.142z"/>
  <path id="5" class="fil8" d="M892.251 408.315c-3.026,0 -5.982,-0.395 -8.868,-1.187 -2.886,-0.791 -5.19,-1.792 -6.913,-3.002l3.352 -6.634c1.676,1.118 3.689,2.014 6.04,2.689 2.35,0.675 4.666,1.012 6.947,1.012 5.214,0 7.821,-1.373 7.821,-4.12 0,-1.303 -0.664,-2.211 -1.99,-2.723 -1.327,-0.512 -3.457,-1.001 -6.389,-1.466 -3.073,-0.466 -5.575,-1.001 -7.507,-1.606 -1.931,-0.605 -3.607,-1.664 -5.027,-3.177 -1.42,-1.513 -2.129,-3.619 -2.129,-6.319 0,-3.538 1.478,-6.366 4.433,-8.484 2.956,-2.118 6.948,-3.177 11.975,-3.177 2.561,0 5.121,0.291 7.681,0.873 2.56,0.582 4.655,1.361 6.284,2.339l-3.351 6.633c-3.166,-1.862 -6.727,-2.793 -10.684,-2.793 -2.56,0 -4.503,0.384 -5.83,1.152 -1.326,0.768 -1.99,1.781 -1.99,3.038 0,1.396 0.71,2.385 2.13,2.967 1.42,0.582 3.619,1.129 6.598,1.641 2.979,0.466 5.423,1.001 7.332,1.606 1.908,0.605 3.549,1.629 4.923,3.072 1.373,1.443 2.059,3.492 2.059,6.145 0,3.491 -1.513,6.284 -4.538,8.379 -3.026,2.095 -7.146,3.142 -12.359,3.142z"/>
  <polygon id="6" class="fil8" points="914.804,384.784 934.006,384.784 934.006,392.046 914.804,392.046 "/>
  <path id="7" class="fil8" d="M958.724 362.58c-3.678,0 -5.516,2.002 -5.516,6.005l0 2.234 10.264 0 0 6.983 -9.985 0 0 30.024 -8.728 0 0 -30.024 -6.145 0 0 -6.983 6.145 0 0 -2.374c0,-4.003 1.164,-7.157 3.491,-9.461 2.328,-2.304 5.609,-3.457 9.845,-3.457 3.352,0 5.982,0.676 7.891,2.025l-2.444 6.564c-1.49,-1.024 -3.096,-1.536 -4.818,-1.536z"/>
  <path id="8" class="fil8" d="M983.232 375.986c2.514,-3.91 6.936,-5.865 13.267,-5.865l0 8.309c-0.745,-0.139 -1.42,-0.209 -2.025,-0.209 -3.398,0 -6.051,0.989 -7.96,2.967 -1.909,1.979 -2.863,4.83 -2.863,8.554l0 18.084 -8.728 0 0 -37.286 8.309 0 0 5.446z"/>
  <path id="9" class="fil8" d="M1038.603 389.392c0,0.606 -0.046,1.467 -0.139,2.584l-29.257 0c0.512,2.747 1.851,4.923 4.015,6.529 2.165,1.606 4.853,2.409 8.065,2.409 4.096,0 7.471,-1.35 10.124,-4.05l4.679 5.376c-1.676,2.002 -3.794,3.515 -6.354,4.539 -2.561,1.024 -5.447,1.536 -8.659,1.536 -4.096,0 -7.704,-0.814 -10.822,-2.444 -3.119,-1.629 -5.528,-3.898 -7.227,-6.808 -1.699,-2.909 -2.549,-6.203 -2.549,-9.88 0,-3.631 0.826,-6.901 2.479,-9.81 1.652,-2.91 3.945,-5.179 6.878,-6.808 2.932,-1.629 6.237,-2.444 9.915,-2.444 3.631,0 6.878,0.803 9.74,2.409 2.863,1.606 5.097,3.864 6.703,6.773 1.606,2.909 2.409,6.272 2.409,10.089zm-18.852 -12.289c-2.793,0 -5.156,0.827 -7.087,2.479 -1.932,1.653 -3.108,3.852 -3.527,6.599l21.157 0c-0.372,-2.7 -1.513,-4.888 -3.421,-6.564 -1.909,-1.676 -4.283,-2.514 -7.122,-2.514z"/>
  <path id="10" class="fil8" d="M1082.034 389.392c0,0.606 -0.046,1.467 -0.139,2.584l-29.257 0c0.512,2.747 1.85,4.923 4.015,6.529 2.165,1.606 4.853,2.409 8.065,2.409 4.096,0 7.471,-1.35 10.124,-4.05l4.679 5.376c-1.676,2.002 -3.794,3.515 -6.354,4.539 -2.561,1.024 -5.447,1.536 -8.659,1.536 -4.096,0 -7.704,-0.814 -10.822,-2.444 -3.119,-1.629 -5.528,-3.898 -7.227,-6.808 -1.7,-2.909 -2.549,-6.203 -2.549,-9.88 0,-3.631 0.826,-6.901 2.479,-9.81 1.652,-2.91 3.945,-5.179 6.878,-6.808 2.932,-1.629 6.237,-2.444 9.915,-2.444 3.631,0 6.877,0.803 9.74,2.409 2.863,1.606 5.097,3.864 6.703,6.773 1.606,2.909 2.409,6.272 2.409,10.089zm-18.852 -12.289c-2.793,0 -5.156,0.827 -7.088,2.479 -1.931,1.653 -3.107,3.852 -3.526,6.599l21.157 0c-0.372,-2.7 -1.513,-4.888 -3.421,-6.564 -1.909,-1.676 -4.283,-2.514 -7.122,-2.514z"/>
  <path id="11" class="fil8" d="M1118.134 408.524c-3.119,0 -5.994,-0.616 -8.624,-1.85 -2.63,-1.233 -4.783,-2.967 -6.459,-5.202l5.167 -6.214c2.7,3.724 5.935,5.586 9.706,5.586 5.074,0 7.611,-3.003 7.611,-9.007l0 -25.277 -17.387 0 0 -7.611 26.464 0 0 32.399c0,5.725 -1.396,10.02 -4.189,12.882 -2.793,2.863 -6.89,4.294 -12.289,4.294z"/>
  <path id="12" class="fil8" d="M1160.727 370.121c5.492,0 9.694,1.315 12.603,3.945 2.909,2.63 4.364,6.598 4.364,11.905l0 21.855 -8.239 0 0 -4.538c-1.071,1.629 -2.595,2.874 -4.574,3.735 -1.978,0.861 -4.364,1.292 -7.157,1.292 -2.793,0 -5.237,-0.477 -7.331,-1.431 -2.095,-0.955 -3.713,-2.281 -4.853,-3.98 -1.141,-1.699 -1.711,-3.62 -1.711,-5.761 0,-3.351 1.245,-6.04 3.736,-8.065 2.49,-2.025 6.412,-3.037 11.765,-3.037l9.636 0 0 -0.558c0,-2.607 -0.78,-4.609 -2.339,-6.005 -1.559,-1.397 -3.875,-2.095 -6.948,-2.095 -2.094,0 -4.154,0.326 -6.179,0.977 -2.025,0.652 -3.736,1.56 -5.132,2.723l-3.422 -6.354c1.955,-1.489 4.306,-2.63 7.053,-3.421 2.746,-0.791 5.656,-1.187 8.728,-1.187zm-1.187 31.84c2.188,0 4.131,-0.5 5.83,-1.501 1.699,-1.001 2.898,-2.432 3.596,-4.294l0 -4.329 -9.007 0c-5.028,0 -7.541,1.652 -7.541,4.957 0,1.583 0.628,2.839 1.885,3.771 1.257,0.931 3.002,1.396 5.237,1.396z"/>
  <polygon id="13" class="fil8" points="1223.08,370.54 1207.09,407.826 1198.083,407.826 1182.093,370.54 1191.17,370.54 1202.761,398.191 1214.701,370.54 "/>
  <path id="14" class="fil8" d="M1241.584 370.121c5.492,0 9.694,1.315 12.603,3.945 2.909,2.63 4.364,6.598 4.364,11.905l0 21.855 -8.239 0 0 -4.538c-1.071,1.629 -2.595,2.874 -4.574,3.735 -1.978,0.861 -4.364,1.292 -7.157,1.292 -2.793,0 -5.237,-0.477 -7.332,-1.431 -2.094,-0.955 -3.712,-2.281 -4.852,-3.98 -1.141,-1.699 -1.711,-3.62 -1.711,-5.761 0,-3.351 1.245,-6.04 3.736,-8.065 2.49,-2.025 6.412,-3.037 11.765,-3.037l9.636 0 0 -0.558c0,-2.607 -0.78,-4.609 -2.339,-6.005 -1.56,-1.397 -3.876,-2.095 -6.948,-2.095 -2.095,0 -4.154,0.326 -6.179,0.977 -2.025,0.652 -3.736,1.56 -5.132,2.723l-3.422 -6.354c1.955,-1.489 4.306,-2.63 7.052,-3.421 2.747,-0.791 5.656,-1.187 8.729,-1.187zm-1.187 31.84c2.187,0 4.131,-0.5 5.83,-1.501 1.699,-1.001 2.898,-2.432 3.596,-4.294l0 -4.329 -9.007 0c-5.028,0 -7.542,1.652 -7.542,4.957 0,1.583 0.629,2.839 1.886,3.771 1.256,0.931 3.002,1.396 5.237,1.396z"/>
  <path id="15" class="fil8" d="M1285.713 408.524c-3.771,0 -7.413,-0.535 -10.928,-1.605 -3.514,-1.071 -6.296,-2.491 -8.344,-4.26l3.142 -7.052c2.002,1.583 4.458,2.874 7.367,3.875 2.909,1.001 5.83,1.501 8.763,1.501 3.631,0 6.342,-0.581 8.134,-1.745 1.793,-1.164 2.689,-2.7 2.689,-4.609 0,-1.396 -0.501,-2.548 -1.502,-3.456 -1,-0.908 -2.269,-1.618 -3.805,-2.13 -1.536,-0.512 -3.631,-1.093 -6.284,-1.745 -3.724,-0.885 -6.738,-1.769 -9.043,-2.653 -2.304,-0.885 -4.282,-2.27 -5.935,-4.155 -1.652,-1.885 -2.478,-4.434 -2.478,-7.646 0,-2.7 0.733,-5.155 2.199,-7.367 1.466,-2.21 3.677,-3.968 6.633,-5.271 2.956,-1.304 6.576,-1.955 10.858,-1.955 2.979,0 5.912,0.372 8.798,1.117 2.886,0.745 5.377,1.815 7.471,3.212l-2.862 7.052c-2.142,-1.257 -4.376,-2.211 -6.704,-2.863 -2.327,-0.651 -4.585,-0.977 -6.773,-0.977 -3.584,0 -6.249,0.605 -7.995,1.815 -1.745,1.211 -2.618,2.816 -2.618,4.818 0,1.397 0.5,2.537 1.501,3.421 1.001,0.885 2.27,1.583 3.806,2.095 1.536,0.512 3.631,1.094 6.284,1.746 3.631,0.838 6.61,1.711 8.937,2.618 2.328,0.908 4.318,2.293 5.971,4.155 1.652,1.862 2.478,4.376 2.478,7.541 0,2.7 -0.733,5.144 -2.199,7.332 -1.467,2.187 -3.689,3.933 -6.669,5.236 -2.979,1.304 -6.609,1.955 -10.892,1.955z"/>
  <path id="16" class="fil8" d="M1330.75 408.315c-3.864,0 -7.332,-0.814 -10.404,-2.444 -3.072,-1.629 -5.47,-3.898 -7.192,-6.808 -1.722,-2.909 -2.584,-6.203 -2.584,-9.88 0,-3.677 0.862,-6.959 2.584,-9.845 1.722,-2.886 4.108,-5.144 7.157,-6.773 3.049,-1.629 6.529,-2.444 10.439,-2.444 3.677,0 6.901,0.745 9.67,2.234 2.77,1.49 4.853,3.631 6.25,6.424l-6.703 3.91c-1.071,-1.722 -2.409,-3.014 -4.015,-3.875 -1.606,-0.861 -3.364,-1.292 -5.272,-1.292 -3.258,0 -5.958,1.059 -8.1,3.177 -2.141,2.118 -3.212,4.946 -3.212,8.484 0,3.538 1.059,6.366 3.177,8.484 2.118,2.118 4.83,3.177 8.135,3.177 1.908,0 3.666,-0.431 5.272,-1.292 1.606,-0.861 2.944,-2.153 4.015,-3.875l6.703 3.91c-1.443,2.793 -3.55,4.946 -6.319,6.459 -2.77,1.513 -5.97,2.269 -9.601,2.269z"/>
  <path id="17" class="fil8" d="M1362.52 375.986c2.514,-3.91 6.936,-5.865 13.267,-5.865l0 8.309c-0.745,-0.139 -1.42,-0.209 -2.025,-0.209 -3.398,0 -6.052,0.989 -7.96,2.967 -1.909,1.979 -2.863,4.83 -2.863,8.554l0 18.084 -8.728 0 0 -37.286 8.309 0 0 5.446z"/>
  <path id="18" class="fil8" d="M1383.188 370.54l8.728 0 0 37.286 -8.728 0 0 -37.286zm4.399 -6.145c-1.583,0 -2.909,-0.5 -3.98,-1.501 -1.07,-1.001 -1.606,-2.246 -1.606,-3.735 0,-1.49 0.536,-2.735 1.606,-3.736 1.071,-1.001 2.397,-1.501 3.98,-1.501 1.583,0 2.91,0.477 3.98,1.431 1.071,0.954 1.606,2.153 1.606,3.596 0,1.536 -0.524,2.828 -1.571,3.875 -1.047,1.048 -2.386,1.571 -4.015,1.571z"/>
  <path id="19" class="fil8" d="M1424.036 370.121c3.631,0 6.877,0.791 9.74,2.374 2.863,1.583 5.109,3.817 6.738,6.703 1.63,2.886 2.444,6.215 2.444,9.985 0,3.771 -0.814,7.111 -2.444,10.02 -1.629,2.909 -3.875,5.155 -6.738,6.738 -2.863,1.583 -6.109,2.374 -9.74,2.374 -5.028,0 -9.008,-1.676 -11.94,-5.027l0 18.084 -8.728 0 0 -50.832 8.309 0 0 4.888c1.443,-1.769 3.223,-3.096 5.341,-3.98 2.118,-0.885 4.458,-1.327 7.018,-1.327zm-0.978 30.723c3.212,0 5.854,-1.071 7.925,-3.212 2.072,-2.141 3.108,-4.958 3.108,-8.449 0,-3.491 -1.036,-6.307 -3.108,-8.449 -2.071,-2.141 -4.713,-3.212 -7.925,-3.212 -2.095,0 -3.98,0.478 -5.656,1.432 -1.675,0.954 -3.002,2.316 -3.98,4.084 -0.977,1.769 -1.466,3.818 -1.466,6.145 0,2.328 0.489,4.376 1.466,6.145 0.978,1.768 2.305,3.13 3.98,4.084 1.676,0.955 3.561,1.432 5.656,1.432z"/>
  <path id="20" class="fil8" d="M1473.681 405.801c-1.024,0.838 -2.269,1.467 -3.736,1.886 -1.466,0.419 -3.014,0.628 -4.643,0.628 -4.096,0 -7.262,-1.071 -9.496,-3.212 -2.235,-2.141 -3.352,-5.26 -3.352,-9.356l0 -17.945 -6.144 0 0 -6.983 6.144 0 0 -8.519 8.728 0 0 8.519 9.986 0 0 6.983 -9.986 0 0 17.735c0,1.816 0.443,3.2 1.327,4.155 0.885,0.954 2.165,1.431 3.84,1.431 1.955,0 3.585,-0.512 4.888,-1.536l2.444 6.214z"/>
  <path id="21" class="fil8" d="M1522.558 405.801c-1.024,0.838 -2.269,1.467 -3.735,1.886 -1.467,0.419 -3.014,0.628 -4.644,0.628 -4.096,0 -7.261,-1.071 -9.496,-3.212 -2.234,-2.141 -3.351,-5.26 -3.351,-9.356l0 -17.945 -6.145 0 0 -6.983 6.145 0 0 -8.519 8.728 0 0 8.519 9.985 0 0 6.983 -9.985 0 0 17.735c0,1.816 0.442,3.2 1.326,4.155 0.885,0.954 2.165,1.431 3.841,1.431 1.955,0 3.584,-0.512 4.887,-1.536l2.444 6.214z"/>
  <path id="22" class="fil8" d="M1563.545 389.392c0,0.606 -0.046,1.467 -0.139,2.584l-29.257 0c0.512,2.747 1.85,4.923 4.015,6.529 2.165,1.606 4.853,2.409 8.065,2.409 4.096,0 7.471,-1.35 10.124,-4.05l4.679 5.376c-1.676,2.002 -3.794,3.515 -6.354,4.539 -2.561,1.024 -5.447,1.536 -8.659,1.536 -4.096,0 -7.704,-0.814 -10.822,-2.444 -3.119,-1.629 -5.528,-3.898 -7.227,-6.808 -1.7,-2.909 -2.549,-6.203 -2.549,-9.88 0,-3.631 0.826,-6.901 2.479,-9.81 1.652,-2.91 3.945,-5.179 6.878,-6.808 2.932,-1.629 6.237,-2.444 9.915,-2.444 3.631,0 6.878,0.803 9.74,2.409 2.863,1.606 5.097,3.864 6.703,6.773 1.606,2.909 2.409,6.272 2.409,10.089zm-18.852 -12.289c-2.793,0 -5.156,0.827 -7.087,2.479 -1.932,1.653 -3.108,3.852 -3.527,6.599l21.157 0c-0.372,-2.7 -1.513,-4.888 -3.421,-6.564 -1.909,-1.676 -4.283,-2.514 -7.122,-2.514z"/>
  <path id="23" class="fil8" d="M1583.445 408.315c-3.026,0 -5.981,-0.395 -8.867,-1.187 -2.886,-0.791 -5.191,-1.792 -6.913,-3.002l3.352 -6.634c1.675,1.118 3.689,2.014 6.039,2.689 2.351,0.675 4.667,1.012 6.948,1.012 5.214,0 7.82,-1.373 7.82,-4.12 0,-1.303 -0.663,-2.211 -1.99,-2.723 -1.326,-0.512 -3.456,-1.001 -6.389,-1.466 -3.072,-0.466 -5.574,-1.001 -7.506,-1.606 -1.932,-0.605 -3.607,-1.664 -5.027,-3.177 -1.42,-1.513 -2.13,-3.619 -2.13,-6.319 0,-3.538 1.478,-6.366 4.434,-8.484 2.956,-2.118 6.948,-3.177 11.975,-3.177 2.56,0 5.12,0.291 7.681,0.873 2.56,0.582 4.655,1.361 6.284,2.339l-3.352 6.633c-3.165,-1.862 -6.726,-2.793 -10.683,-2.793 -2.56,0 -4.504,0.384 -5.83,1.152 -1.327,0.768 -1.99,1.781 -1.99,3.038 0,1.396 0.71,2.385 2.129,2.967 1.42,0.582 3.62,1.129 6.599,1.641 2.979,0.466 5.423,1.001 7.332,1.606 1.908,0.605 3.549,1.629 4.922,3.072 1.373,1.443 2.06,3.492 2.06,6.145 0,3.491 -1.513,6.284 -4.539,8.379 -3.025,2.095 -7.145,3.142 -12.359,3.142z"/>
  <path id="24" class="fil8" d="M1630.298 405.801c-1.024,0.838 -2.269,1.467 -3.736,1.886 -1.466,0.419 -3.014,0.628 -4.643,0.628 -4.097,0 -7.262,-1.071 -9.496,-3.212 -2.235,-2.141 -3.352,-5.26 -3.352,-9.356l0 -17.945 -6.145 0 0 -6.983 6.145 0 0 -8.519 8.728 0 0 8.519 9.985 0 0 6.983 -9.985 0 0 17.735c0,1.816 0.442,3.2 1.327,4.155 0.884,0.954 2.164,1.431 3.84,1.431 1.955,0 3.585,-0.512 4.888,-1.536l2.444 6.214z"/>
  <path id="25" class="fil8" d="M1637.49 370.54l8.728 0 0 37.286 -8.728 0 0 -37.286zm4.399 -6.145c-1.583,0 -2.91,-0.5 -3.98,-1.501 -1.071,-1.001 -1.606,-2.246 -1.606,-3.735 0,-1.49 0.535,-2.735 1.606,-3.736 1.07,-1.001 2.397,-1.501 3.98,-1.501 1.582,0 2.909,0.477 3.98,1.431 1.07,0.954 1.606,2.153 1.606,3.596 0,1.536 -0.524,2.828 -1.571,3.875 -1.048,1.048 -2.386,1.571 -4.015,1.571z"/>
  <path id="26" class="fil8" d="M1678.826 370.121c4.702,0 8.472,1.373 11.312,4.12 2.839,2.746 4.259,6.819 4.259,12.219l0 21.366 -8.728 0 0 -20.249c0,-3.258 -0.768,-5.714 -2.304,-7.366 -1.537,-1.653 -3.724,-2.479 -6.564,-2.479 -3.212,0 -5.749,0.966 -7.611,2.898 -1.862,1.931 -2.793,4.713 -2.793,8.344l0 18.852 -8.728 0 0 -37.286 8.309 0 0 4.818c1.443,-1.722 3.259,-3.026 5.447,-3.91 2.188,-0.885 4.655,-1.327 7.401,-1.327z"/>
  <path id="27" class="fil8" d="M1742.855 370.54l0 31.63c0,13.127 -6.703,19.691 -20.109,19.691 -3.584,0 -6.983,-0.454 -10.194,-1.361 -3.213,-0.908 -5.866,-2.223 -7.961,-3.946l3.911 -6.563c1.629,1.35 3.689,2.432 6.179,3.247 2.49,0.814 5.016,1.222 7.576,1.222 4.096,0 7.099,-0.931 9.008,-2.793 1.908,-1.862 2.862,-4.702 2.862,-8.519l0 -1.955c-1.489,1.629 -3.305,2.863 -5.446,3.701 -2.141,0.838 -4.492,1.257 -7.052,1.257 -3.538,0 -6.738,-0.757 -9.601,-2.27 -2.863,-1.513 -5.121,-3.642 -6.773,-6.389 -1.653,-2.746 -2.479,-5.888 -2.479,-9.426 0,-3.538 0.826,-6.668 2.479,-9.392 1.652,-2.723 3.91,-4.829 6.773,-6.319 2.863,-1.489 6.063,-2.234 9.601,-2.234 2.7,0 5.155,0.442 7.366,1.327 2.211,0.884 4.062,2.234 5.551,4.049l0 -4.957 8.309 0zm-19.9 28.209c3.305,0 6.017,-0.989 8.135,-2.967 2.118,-1.979 3.177,-4.551 3.177,-7.716 0,-3.119 -1.059,-5.656 -3.177,-7.611 -2.118,-1.955 -4.83,-2.933 -8.135,-2.933 -3.351,0 -6.086,0.978 -8.204,2.933 -2.118,1.955 -3.177,4.492 -3.177,7.611 0,3.165 1.059,5.737 3.177,7.716 2.118,1.978 4.853,2.967 8.204,2.967z"/>
 </g>
</svg>
